# xmcd
#
# Track frame offsets: 
#        150
#        23529
#        42157
#        59631
#        79740
#        105803
#        132224
#        150346
#        176287
#        191169
#        200169
#
# Disc length: 3007 seconds
#
# Revision: 0
# Processed by: cddbd v1.5.2PL0 Copyright (c) Steve Scherf et al.
# Submitted via: ExactAudioCopy v1.3
#
DISCID=840bbd0b
DTITLE=Nicole Hart - Treasure
DYEAR=2009
DGENRE=Blues
TTITLE0=Can't Ever Let You Go
TTITLE1=Heart Trouble
TTITLE2=You Were Lyin' To Me
TTITLE3=Higher Ground
TTITLE4=No Cuttin' Loose
TTITLE5=Treasure
TTITLE6=I Just Want To Cry
TTITLE7=Singing The Blues
TTITLE8=Gin House Blues
TTITLE9=It Feels So Right
TTITLE10=The Other Side Of The World
EXTD=
EXTT0=
EXTT1=
EXTT2=
EXTT3=
EXTT4=
EXTT5=
EXTT6=
EXTT7=
EXTT8=
EXTT9=
EXTT10=
PLAYORDER=
